<svg xmlns="http://www.w3.org/2000/svg" xmlns:xlink="http://www.w3.org/1999/xlink" xmlns:lucid="lucid" width="1027.28" height="1000"><g transform="translate(-292.72222222222223 0)" lucid:page-tab-id="0_0"><path d="M0 0h1870.87v1322.83H0z" fill="#fff"/><path d="M500 26a6 6 0 0 1 6-6h608a6 6 0 0 1 6 6v948a6 6 0 0 1-6 6H506a6 6 0 0 1-6-6z" stroke="#3a414a" fill-opacity="0"/><use xlink:href="#a" transform="matrix(1,0,0,1,507.99999999999994,28) translate(202.03703703703704 17.77777777777778)"/><use xlink:href="#b" transform="matrix(1,0,0,1,507.99999999999994,28) translate(321.60493827160496 17.77777777777778)"/><path d="M399.75 99.75c0 10.9-8.84 19.75-19.75 19.75-10.9 0-19.75-8.84-19.75-19.75C360.25 88.85 369.1 80 380 80c10.9 0 19.75 8.84 19.75 19.75z" stroke="#3a414a" fill="#fff"/><path d="M380 119.5v49.3a20.7 20.7 0 0 0 3.2 11.07L420 238m-40-63.2L340 238m0-98.75h80" stroke="#3a414a" fill="none"/><path d="M340 86a6 6 0 0 1 6-6h68a6 6 0 0 1 6 6v168a6 6 0 0 1-6 6h-68a6 6 0 0 1-6-6z" fill="none"/><use xlink:href="#c" transform="matrix(1,0,0,1,260,237.99999999999994) translate(80.58641975308642 17.77777777777778)"/><path d="M399.75 559.75c0 10.9-8.84 19.75-19.75 19.75-10.9 0-19.75-8.84-19.75-19.75 0-10.9 8.84-19.75 19.75-19.75 10.9 0 19.75 8.84 19.75 19.75z" stroke="#3a414a" fill="#fff"/><path d="M380 579.5v49.3a20.7 20.7 0 0 0 3.2 11.07L420 698m-40-63.2L340 698m0-98.75h80" stroke="#3a414a" fill="none"/><path d="M340 546a6 6 0 0 1 6-6h68a6 6 0 0 1 6 6v168a6 6 0 0 1-6 6h-68a6 6 0 0 1-6-6z" fill="none"/><use xlink:href="#d" transform="matrix(1,0,0,1,260,698) translate(54.72222222222223 17.77777777777778)"/><path d="M780 139.8c0 27.6-35.82 50-80 50s-80-22.4-80-50c0-27.62 35.82-50 80-50s80 22.38 80 50z" stroke="#3a414a" fill="#fff"/><use xlink:href="#e" transform="matrix(1,0,0,1,620,89.79175067970567) translate(40.08 55.025)"/><path d="M780 314.9c0 27.6-35.82 50-80 50s-80-22.4-80-50c0-27.62 35.82-50 80-50s80 22.38 80 50z" stroke="#3a414a" fill="#fff"/><use xlink:href="#f" transform="matrix(1,0,0,1,620,264.8958753398528) translate(28.079999999999995 33.410000000000004)"/><use xlink:href="#g" transform="matrix(1,0,0,1,620,264.8958753398528) translate(25.029999999999994 55.01)"/><use xlink:href="#h" transform="matrix(1,0,0,1,620,264.8958753398528) translate(73.03 55.01)"/><use xlink:href="#i" transform="matrix(1,0,0,1,620,264.8958753398528) translate(124.98 55.01)"/><use xlink:href="#j" transform="matrix(1,0,0,1,620,264.8958753398528) translate(48.029999999999994 76.61)"/><path d="M420.5 138.75h198.12" stroke="#3a414a" fill="none"/><path d="M420.5 139.25h-.5v-.5h-3v-.5h3.5z" stroke="#3a414a" stroke-width=".05" fill="#3a414a"/><path d="M601.34 148.93l17.2-10.18-17.2-10.18" stroke="#3a414a" fill="none"/><path d="M1300 180c0 33.14-31.34 60-70 60s-70-26.86-70-60 31.34-60 70-60 70 26.86 70 60z" stroke="#3a414a" fill="#fff"/><use xlink:href="#k" transform="matrix(1,0,0,1,1165,124.99999999999994) translate(24.290123456790127 59.02777777777778)"/><path d="M780 830c0 27.6-35.82 50-80 50s-80-22.4-80-50 35.82-50 80-50 80 22.4 80 50z" stroke="#3a414a" fill="#fff"/><use xlink:href="#l" transform="matrix(1,0,0,1,620,780) translate(39.029999999999994 55.025)"/><path d="M420.33 600.13L618.9 829.3" stroke="#3a414a" fill="none"/><path d="M420.7 599.8l-.74.66-.62-.7h.66v-.77zm-2.23-1.05l-.8-.94.74-.64 1.4 1.6z" stroke="#3a414a" stroke-width=".05" fill="#3a414a"/><path d="M599.9 822.9l18.96 6.36-3.58-19.68M380.92 159.2l237.82 155.2M380.93 159.2l-2.94-1.9M598.7 313.48l19.98.88-8.86-17.93M420.3 599.34l198.68-283.7" stroke="#3a414a" fill="none"/><path d="M420.7 599.62l-2 2.87-.83-.58 1.52-2.17h.6v-.63z" stroke="#3a414a" stroke-width=".05" fill="#3a414a"/><path d="M617.4 335.64l1.54-19.94-18.22 8.26" stroke="#3a414a" fill="none"/><path d="M1300 360c0 33.14-31.34 60-70 60s-70-26.86-70-60 31.34-60 70-60 70 26.86 70 60z" stroke="#3a414a" fill="#fff"/><use xlink:href="#m" transform="matrix(1,0,0,1,1165,304.99999999999994) translate(34.16666666666667 59.02777777777778)"/><path d="M1159.03 359.47l-.06 1-4.97-.26.05-1zm-9.95-.52l-.05 1-9.95-.52.05-1zm-14.92-.78l-.05 1-9.94-.52.05-1zm-14.92-.78l-.05 1-9.96-.53.05-1zm-14.92-.8l-.05 1-9.95-.5.05-1zm-14.92-.77l-.05 1-9.95-.52.06-1zm-14.92-.78l-.05 1-9.95-.52.06-1zm-14.92-.78l-.05 1-9.94-.52.06-1zm-14.92-.78l-.05 1-9.96-.53.06-1zm-14.92-.8l-.05 1-9.95-.5.06-1zm-119.35-6.23l-.06 1-9.93-.52.05-1zm-14.92-.78l-.06 1-9.95-.53.05-1zm-14.92-.8l-.06 1-9.94-.5.05-1zm-14.92-.77l-.04 1-9.95-.52.06-1zm-14.9-.78l-.06 1-9.95-.53.04-1zm-14.93-.78l-.05 1-9.95-.53.05-1zm-14.92-.78l-.05.98-9.95-.52.05-1zm-14.92-.8l-.05 1-9.95-.52.05-1zm-14.92-.78l-.04 1-9.95-.52.06-1zm-14.9-.78l-.06 1-4.98-.26.06-1z" stroke="#3a414a" stroke-width=".05" fill="#3a414a"/><path d="M1159.52 359.5l-.02.5.02.5-.56-.03.05-1z" fill="#3a414a"/><path d="M1159.54 359.48l-.02.52.02.53-.6-.03.05-1.05zm-.55.97l.5.03-.03-.48.02-.48-.46-.02zM789.12 330.86l-16.98 8.88 15.96 10.6-.55.83-17.37-11.53 18.48-9.66z" stroke="#3a414a" stroke-width=".05" fill="#3a414a"/><use xlink:href="#n" transform="matrix(1,0,0,1,913.0634602880903,339.151484524016) translate(0 14.222222222222223)"/><path d="M769.55 282.96l-4.87 1.28-.26-.96 4.87-1.28zm14.6-3.84l-9.73 2.56-.26-.96 9.74-2.56zm14.62-3.83l-9.74 2.55-.26-.97 9.74-2.56zm14.6-3.85l-9.73 2.56-.26-.96 9.74-2.56zM828 267.6l-9.75 2.57-.26-.97 9.73-2.56zm14.6-3.83l-9.74 2.56-.26-.97 9.74-2.56zm14.6-3.84l-9.73 2.56-.26-.97 9.75-2.56zm14.62-3.83l-9.74 2.55-.26-.96 9.74-2.57zm14.6-3.84l-9.73 2.56-.27-.97 9.74-2.56zm14.62-3.84l-9.74 2.56-.26-.97 9.74-2.55zm14.6-3.84l-9.73 2.56-.25-.97 9.74-2.56zm14.62-3.84l-9.74 2.56-.26-.97 9.74-2.55zm14.6-3.84l-9.73 2.56-.26-.96 9.74-2.56zm4.88-1.27l-.26-.97 5-1.32h3.95zm97.4-25.6l-7.5 1.98h-2.4l-.1-.37 9.74-2.56zm14.6-3.83l-9.74 2.56-.25-.97 9.74-2.57zm14.6-3.84l-9.73 2.56-.24-.97 9.74-2.56zm14.62-3.84l-9.74 2.56-.25-.97 9.74-2.54zm14.6-3.84l-9.73 2.56-.25-.96 9.74-2.56zm14.62-3.83l-9.74 2.55-.25-.96 9.73-2.56zm14.6-3.84l-9.73 2.57-.25-.97 9.74-2.56zm14.62-3.83l-9.74 2.56-.25-.97 9.75-2.56zm9.74-2.56l-4.87 1.3-.25-.98 4.87-1.28z" stroke="#3a414a" stroke-width=".05" fill="#3a414a"/><path d="M1159.5 180l.02.5-.4.1-.24-.95.64-.17z" fill="#3a414a"/><path d="M1159.52 180l.02.53-.43.1-.25-1 .7-.18zm-.6-.34l.23.92.34-.1-.03-.48.02-.5zM779.04 269.87l-13.47 13.62 18.42 5.23-.28.96-20.05-5.7 14.66-14.83z" stroke="#3a414a" stroke-width=".05" fill="#3a414a"/><use xlink:href="#n" transform="matrix(1,0,0,1,945.2845856924129,212.00798497689013) translate(0 14.222222222222223)"/><path d="M780 660c0 33.14-35.82 60-80 60s-80-26.86-80-60 35.82-60 80-60 80 26.86 80 60z" stroke="#3a414a" fill="#fff"/><use xlink:href="#o" transform="matrix(1,0,0,1,620,600) translate(43.05499999999999 36.9)"/><use xlink:href="#p" transform="matrix(1,0,0,1,620,600) translate(41.004999999999995 58.5)"/><use xlink:href="#q" transform="matrix(1,0,0,1,620,600) translate(21.079999999999995 80.10000000000001)"/><use xlink:href="#r" transform="matrix(1,0,0,1,620,600) translate(91.98 80.10000000000001)"/><path d="M420.48 599.9l198.15 59.84" stroke="#3a414a" fill="none"/><path d="M420.64 599.42l-.3.96-2.07-.63H420v-.52zm-3.47-.67l.1-.35 1.15.35z" stroke="#3a414a" stroke-width=".05" fill="#3a414a"/><path d="M599.14 664.5l19.42-4.78L605.02 645" stroke="#3a414a" fill="none"/><path d="M776 480.67c0 27.6-35.82 50-80 50s-80-22.4-80-50c0-27.62 35.82-50 80-50s80 22.38 80 50z" stroke="#3a414a" fill="#fff"/><use xlink:href="#s" transform="matrix(1,0,0,1,616,430.6666666666666) translate(18.029999999999998 42.525)"/><use xlink:href="#r" transform="matrix(1,0,0,1,616,430.6666666666666) translate(56.53 64.125)"/><path d="M420.43 598.5l194.3-117.36" stroke="#3a414a" fill="none"/><path d="M417.7 600.73l-.53-.86.2-.12h1.94zm3-1.82l-.7.43v-.58h-.97l1.15-.7z" stroke="#3a414a" stroke-width=".05" fill="#3a414a"/><path d="M605.2 498.8l9.46-17.63-20 .2" stroke="#3a414a" fill="none"/><path d="M1080 480.67c0 27.6-35.82 50-80 50s-80-22.4-80-50c0-27.62 35.82-50 80-50s80 22.38 80 50z" stroke="#3a414a" fill="#fff"/><use xlink:href="#s" transform="matrix(1,0,0,1,920,430.6666666666666) translate(18.029999999999998 42.525)"/><use xlink:href="#r" transform="matrix(1,0,0,1,920,430.6666666666666) translate(56.53 64.125)"/><path d="M777.4 480.67l5.25.03m5.25.02l10.5.05m5.23.02l10.5.04m5.24.03l10.5.05m5.23.02l10.5.05m5.24 0l10.48.06m5.25.03l10.5.04m5.23.02l10.5.05m5.24.03l10.5.05m5.23.03l5.25.03M794.74 470.57l-17.26 10.1 17.17 10.26" stroke="#3a414a" fill="none"/><path d="M919.5 480.83v.1l.04.9H919v-1z" stroke="#3a414a" stroke-width=".05" fill="#3a414a"/><g><use xlink:href="#t" transform="matrix(1,0,0,1,799.7433241871789,455.6690989565559) translate(0 14.222222222222223)"/></g><path d="M781.4 660h5.1m5.1 0h10.2m5.1 0h10.18m5.1 0h10.2m5.08 0h10.2m5.1 0h10.18m5.1 0h10.2m5.1 0h10.18m5.1 0h10.2m5.08 0h5.1M798.7 649.82L781.48 660l17.22 10.18" stroke="#3a414a" fill="none"/><path d="M919.5 660v.5h-.5v-1h.52z" stroke="#3a414a" stroke-width=".05" fill="#3a414a"/><g><use xlink:href="#t" transform="matrix(1,0,0,1,809.358024691358,634.6666666666666) translate(0 14.222222222222223)"/></g><path d="M1080 660c0 33.14-35.82 60-80 60s-80-26.86-80-60 35.82-60 80-60 80 26.86 80 60z" stroke="#3a414a" fill="#fff"/><g><use xlink:href="#u" transform="matrix(1,0,0,1,920,600) translate(39.529999999999994 51.9)"/><use xlink:href="#q" transform="matrix(1,0,0,1,920,600) translate(21.07999999999999 73.5)"/><use xlink:href="#v" transform="matrix(1,0,0,1,920,600) translate(91.98 73.5)"/></g><defs><path fill="#3a414a" d="M232-93c-1 65-40 97-104 97C67 4 28-28 28-90v-158h33c8 89-33 224 67 224 102 0 64-133 71-224h33v155" id="w"/><path fill="#3a414a" d="M9 0v-24l116-142H16v-24h144v24L44-24h123V0H9zm95-211H68c-13-18-31-30-41-51 32-2 39 20 59 30 19-10 26-32 57-30-9 21-27 33-39 51" id="x"/><path fill="#3a414a" d="M24-231v-30h32v30H24zM24 0v-190h32V0H24" id="y"/><path fill="#3a414a" d="M108 0H70L1-190h34L89-25l56-165h34" id="z"/><path fill="#3a414a" d="M141-36C126-15 110 5 73 4 37 3 15-17 15-53c-1-64 63-63 125-63 3-35-9-54-41-54-24 1-41 7-42 31l-33-3c5-37 33-52 76-52 45 0 72 20 72 64v82c-1 20 7 32 28 27v20c-31 9-61-2-59-35zM48-53c0 20 12 33 32 33 41-3 63-29 60-74-43 2-92-5-92 41" id="A"/><path fill="#3a414a" d="M59-47c-2 24 18 29 38 22v24C64 9 27 4 27-40v-127H5v-23h24l9-43h21v43h35v23H59v120" id="B"/><path fill="#3a414a" d="M100-194c63 0 86 42 84 106H49c0 40 14 67 53 68 26 1 43-12 49-29l28 8c-11 28-37 45-77 45C44 4 14-33 15-96c1-61 26-98 85-98zm52 81c6-60-76-77-97-28-3 7-6 17-6 28h103" id="C"/><path fill="#3a414a" d="M24 0v-261h32V0H24" id="D"/><path fill="#3a414a" d="M135-143c-3-34-86-38-87 0 15 53 115 12 119 90S17 21 10-45l28-5c4 36 97 45 98 0-10-56-113-15-118-90-4-57 82-63 122-42 12 7 21 19 24 35" id="E"/><path fill="#3a414a" d="M143 0L79-87 56-68V0H24v-261h32v163l83-92h37l-77 82L181 0h-38" id="F"/><path fill="#3a414a" d="M100-194c63 0 86 42 84 106H49c0 40 14 67 53 68 26 1 43-12 49-29l28 8c-11 28-37 45-77 45C44 4 14-33 15-96c1-61 26-98 85-98zm52 81c6-60-76-77-97-28-3 7-6 17-6 28h103zm-74-98c8-23 27-35 38-54h36v5l-58 49H78" id="G"/><g id="a"><use transform="matrix(0.06172839506172839,0,0,0.06172839506172839,0,0)" xlink:href="#w"/><use transform="matrix(0.06172839506172839,0,0,0.06172839506172839,15.987654320987653,0)" xlink:href="#x"/><use transform="matrix(0.06172839506172839,0,0,0.06172839506172839,27.098765432098766,0)" xlink:href="#y"/><use transform="matrix(0.06172839506172839,0,0,0.06172839506172839,31.975308641975307,0)" xlink:href="#z"/><use transform="matrix(0.06172839506172839,0,0,0.06172839506172839,43.08641975308642,0)" xlink:href="#A"/><use transform="matrix(0.06172839506172839,0,0,0.06172839506172839,55.432098765432094,0)" xlink:href="#B"/><use transform="matrix(0.06172839506172839,0,0,0.06172839506172839,61.60493827160494,0)" xlink:href="#C"/><use transform="matrix(0.06172839506172839,0,0,0.06172839506172839,73.95061728395062,0)" xlink:href="#D"/><use transform="matrix(0.06172839506172839,0,0,0.06172839506172839,78.82716049382717,0)" xlink:href="#E"/><use transform="matrix(0.06172839506172839,0,0,0.06172839506172839,89.93827160493828,0)" xlink:href="#F"/><use transform="matrix(0.06172839506172839,0,0,0.06172839506172839,101.0493827160494,0)" xlink:href="#G"/></g><path fill="#3a414a" d="M114-163C36-179 61-72 57 0H25l-1-190h30c1 12-1 29 2 39 6-27 23-49 58-41v29" id="H"/><path fill="#3a414a" d="M100-194c62-1 85 37 85 99 1 63-27 99-86 99S16-35 15-95c0-66 28-99 85-99zM99-20c44 1 53-31 53-75 0-43-8-75-51-75s-53 32-53 75 10 74 51 75" id="I"/><path fill="#3a414a" d="M9 0v-24l116-142H16v-24h144v24L44-24h123V0H9" id="J"/><path fill="#3a414a" d="M106-169C34-169 62-67 57 0H25v-261h32l-1 103c12-21 28-36 61-36 89 0 53 116 60 194h-32v-121c2-32-8-49-39-48" id="K"/><path fill="#3a414a" d="M117-194c89-4 53 116 60 194h-32v-121c0-31-8-49-39-48C34-167 62-67 57 0H25l-1-190h30c1 10-1 24 2 32 11-22 29-35 61-36" id="L"/><path fill="#3a414a" d="M34 0v-190h32V0H34zM24-211c8-23 27-35 38-54h36v5l-58 49H24" id="M"/><g id="b"><use transform="matrix(0.06172839506172839,0,0,0.06172839506172839,0,0)" xlink:href="#H"/><use transform="matrix(0.06172839506172839,0,0,0.06172839506172839,7.345679012345679,0)" xlink:href="#I"/><use transform="matrix(0.06172839506172839,0,0,0.06172839506172839,19.691358024691358,0)" xlink:href="#J"/><use transform="matrix(0.06172839506172839,0,0,0.06172839506172839,30.80246913580247,0)" xlink:href="#K"/><use transform="matrix(0.06172839506172839,0,0,0.06172839506172839,43.148148148148145,0)" xlink:href="#H"/><use transform="matrix(0.06172839506172839,0,0,0.06172839506172839,50.49382716049382,0)" xlink:href="#A"/><use transform="matrix(0.06172839506172839,0,0,0.06172839506172839,62.8395061728395,0)" xlink:href="#L"/><use transform="matrix(0.06172839506172839,0,0,0.06172839506172839,75.18518518518518,0)" xlink:href="#M"/></g><g id="c"><use transform="matrix(0.06172839506172839,0,0,0.06172839506172839,0,0)" xlink:href="#w"/><use transform="matrix(0.06172839506172839,0,0,0.06172839506172839,15.987654320987653,0)" xlink:href="#x"/><use transform="matrix(0.06172839506172839,0,0,0.06172839506172839,27.098765432098766,0)" xlink:href="#y"/><use transform="matrix(0.06172839506172839,0,0,0.06172839506172839,31.975308641975307,0)" xlink:href="#z"/><use transform="matrix(0.06172839506172839,0,0,0.06172839506172839,43.08641975308642,0)" xlink:href="#A"/><use transform="matrix(0.06172839506172839,0,0,0.06172839506172839,55.432098765432094,0)" xlink:href="#B"/><use transform="matrix(0.06172839506172839,0,0,0.06172839506172839,61.60493827160494,0)" xlink:href="#C"/><use transform="matrix(0.06172839506172839,0,0,0.06172839506172839,73.95061728395062,0)" xlink:href="#D"/></g><path fill="#3a414a" d="M205 0l-28-72H64L36 0H1l101-248h38L239 0h-34zm-38-99l-47-123c-12 45-31 82-46 123h93" id="N"/><path fill="#3a414a" d="M85-194c31 0 48 13 60 33l-1-100h32l1 261h-30c-2-10 0-23-3-31C134-8 116 4 85 4 32 4 16-35 15-94c0-66 23-100 70-100zm9 24c-40 0-46 34-46 75 0 40 6 74 45 74 42 0 51-32 51-76 0-42-9-74-50-73" id="O"/><path fill="#3a414a" d="M210-169c-67 3-38 105-44 169h-31v-121c0-29-5-50-35-48C34-165 62-65 56 0H25l-1-190h30c1 10-1 24 2 32 10-44 99-50 107 0 11-21 27-35 58-36 85-2 47 119 55 194h-31v-121c0-29-5-49-35-48" id="P"/><path fill="#3a414a" d="M141-36C126-15 110 5 73 4 37 3 15-17 15-53c-1-64 63-63 125-63 3-35-9-54-41-54-24 1-41 7-42 31l-33-3c5-37 33-52 76-52 45 0 72 20 72 64v82c-1 20 7 32 28 27v20c-31 9-61-2-59-35zM48-53c0 20 12 33 32 33 41-3 63-29 60-74-43 2-92-5-92 41zm25-158c8-23 27-35 38-54h36v5l-58 49H73" id="Q"/><g id="d"><use transform="matrix(0.06172839506172839,0,0,0.06172839506172839,0,0)" xlink:href="#N"/><use transform="matrix(0.06172839506172839,0,0,0.06172839506172839,14.814814814814813,0)" xlink:href="#O"/><use transform="matrix(0.06172839506172839,0,0,0.06172839506172839,27.160493827160494,0)" xlink:href="#P"/><use transform="matrix(0.06172839506172839,0,0,0.06172839506172839,45.61728395061728,0)" xlink:href="#y"/><use transform="matrix(0.06172839506172839,0,0,0.06172839506172839,50.49382716049382,0)" xlink:href="#L"/><use transform="matrix(0.06172839506172839,0,0,0.06172839506172839,62.8395061728395,0)" xlink:href="#y"/><use transform="matrix(0.06172839506172839,0,0,0.06172839506172839,67.71604938271604,0)" xlink:href="#E"/><use transform="matrix(0.06172839506172839,0,0,0.06172839506172839,78.82716049382715,0)" xlink:href="#B"/><use transform="matrix(0.06172839506172839,0,0,0.06172839506172839,84.99999999999999,0)" xlink:href="#H"/><use transform="matrix(0.06172839506172839,0,0,0.06172839506172839,92.34567901234567,0)" xlink:href="#Q"/><use transform="matrix(0.06172839506172839,0,0,0.06172839506172839,104.69135802469135,0)" xlink:href="#B"/><use transform="matrix(0.06172839506172839,0,0,0.06172839506172839,110.86419753086419,0)" xlink:href="#I"/><use transform="matrix(0.06172839506172839,0,0,0.06172839506172839,123.20987654320987,0)" xlink:href="#H"/></g><path d="M30-248c87 1 191-15 191 75 0 78-77 80-158 76V0H30v-248zm33 125c57 0 124 11 124-50 0-59-68-47-124-48v98" id="R"/><path d="M114-163C36-179 61-72 57 0H25l-1-190h30c1 12-1 29 2 39 6-27 23-49 58-41v29zm-27-48H51c-13-18-31-30-41-51 32-2 39 20 59 30 19-10 26-32 57-30-9 21-27 33-39 51" id="S"/><path d="M24-231v-30h32v30H24zM24 0v-190h32V0H24" id="T"/><path d="M106-169C34-169 62-67 57 0H25v-261h32l-1 103c12-21 28-36 61-36 89 0 53 116 60 194h-32v-121c2-32-8-49-39-48" id="U"/><path d="M24 0v-261h32V0H24" id="V"/><path d="M141-36C126-15 110 5 73 4 37 3 15-17 15-53c-1-64 63-63 125-63 3-35-9-54-41-54-24 1-41 7-42 31l-33-3c5-37 33-52 76-52 45 0 72 20 72 64v82c-1 20 7 32 28 27v20c-31 9-61-2-59-35zM48-53c0 20 12 33 32 33 41-3 63-29 60-74-43 2-92-5-92 41zm25-158c8-23 27-35 38-54h36v5l-58 49H73" id="W"/><path d="M135-143c-3-34-86-38-87 0 15 53 115 12 119 90S17 21 10-45l28-5c4 36 97 45 98 0-10-56-113-15-118-90-4-57 82-63 122-42 12 7 21 19 24 35zm-28-68H71c-13-18-31-30-41-51 32-2 39 20 59 30 19-10 26-32 57-30-9 21-27 33-39 51" id="X"/><path d="M100-194c63 0 86 42 84 106H49c0 40 14 67 53 68 26 1 43-12 49-29l28 8c-11 28-37 45-77 45C44 4 14-33 15-96c1-61 26-98 85-98zm52 81c6-60-76-77-97-28-3 7-6 17-6 28h103" id="Y"/><path d="M117-194c89-4 53 116 60 194h-32v-121c0-31-8-49-39-48C34-167 62-67 57 0H25l-1-190h30c1 10-1 24 2 32 11-22 29-35 61-36" id="Z"/><path d="M34 0v-190h32V0H34zM24-211c8-23 27-35 38-54h36v5l-58 49H24" id="aa"/><g id="e"><use transform="matrix(0.05,0,0,0.05,0,0)" xlink:href="#R"/><use transform="matrix(0.05,0,0,0.05,12,0)" xlink:href="#S"/><use transform="matrix(0.05,0,0,0.05,17.95,0)" xlink:href="#T"/><use transform="matrix(0.05,0,0,0.05,21.9,0)" xlink:href="#U"/><use transform="matrix(0.05,0,0,0.05,31.899999999999995,0)" xlink:href="#V"/><use transform="matrix(0.05,0,0,0.05,35.85,0)" xlink:href="#W"/><use transform="matrix(0.05,0,0,0.05,45.85,0)" xlink:href="#X"/><use transform="matrix(0.05,0,0,0.05,54.85,0)" xlink:href="#Y"/><use transform="matrix(0.05,0,0,0.05,64.85,0)" xlink:href="#Z"/><use transform="matrix(0.05,0,0,0.05,74.85,0)" xlink:href="#aa"/></g><path d="M240 0l2-218c-23 76-54 145-80 218h-23L58-218 59 0H30v-248h44l77 211c21-75 51-140 76-211h43V0h-30" id="ab"/><path d="M100-194c62-1 85 37 85 99 1 63-27 99-86 99S16-35 15-95c0-66 28-99 85-99zM99-20c44 1 53-31 53-75 0-43-8-75-51-75s-53 32-53 75 10 74 51 75" id="ac"/><path d="M59-47c-2 24 18 29 38 22v24C64 9 27 4 27-40v-127H5v-23h24l9-43h21v43h35v23H59v120" id="ad"/><path d="M114-163C36-179 61-72 57 0H25l-1-190h30c1 12-1 29 2 39 6-27 23-49 58-41v29" id="ae"/><path d="M108 0H70L1-190h34L89-25l56-165h34" id="af"/><g id="f"><use transform="matrix(0.05,0,0,0.05,0,0)" xlink:href="#ab"/><use transform="matrix(0.05,0,0,0.05,14.950000000000001,0)" xlink:href="#ac"/><use transform="matrix(0.05,0,0,0.05,24.950000000000003,0)" xlink:href="#Z"/><use transform="matrix(0.05,0,0,0.05,34.95,0)" xlink:href="#T"/><use transform="matrix(0.05,0,0,0.05,38.900000000000006,0)" xlink:href="#ad"/><use transform="matrix(0.05,0,0,0.05,43.900000000000006,0)" xlink:href="#ac"/><use transform="matrix(0.05,0,0,0.05,53.900000000000006,0)" xlink:href="#ae"/><use transform="matrix(0.05,0,0,0.05,59.85,0)" xlink:href="#ac"/><use transform="matrix(0.05,0,0,0.05,69.85000000000001,0)" xlink:href="#af"/><use transform="matrix(0.05,0,0,0.05,78.85000000000001,0)" xlink:href="#W"/><use transform="matrix(0.05,0,0,0.05,88.85000000000001,0)" xlink:href="#Z"/><use transform="matrix(0.05,0,0,0.05,98.85000000000001,0)" xlink:href="#aa"/></g><path d="M135-143c-3-34-86-38-87 0 15 53 115 12 119 90S17 21 10-45l28-5c4 36 97 45 98 0-10-56-113-15-118-90-4-57 82-63 122-42 12 7 21 19 24 35" id="ag"/><path d="M141-36C126-15 110 5 73 4 37 3 15-17 15-53c-1-64 63-63 125-63 3-35-9-54-41-54-24 1-41 7-42 31l-33-3c5-37 33-52 76-52 45 0 72 20 72 64v82c-1 20 7 32 28 27v20c-31 9-61-2-59-35zM48-53c0 20 12 33 32 33 41-3 63-29 60-74-43 2-92-5-92 41" id="ah"/><path d="M84 4C-5 8 30-112 23-190h32v120c0 31 7 50 39 49 72-2 45-101 50-169h31l1 190h-30c-1-10 1-25-2-33-11 22-28 36-60 37zm17-294c26 0 42 16 42 42 0 27-18 40-42 43-25-2-43-16-43-43 0-26 17-42 43-42zm-24 42c-2 26 37 32 45 10 6-16-3-33-21-33-16 0-23 10-24 23" id="ai"/><g id="g"><use transform="matrix(0.05,0,0,0.05,0,0)" xlink:href="#ag"/><use transform="matrix(0.05,0,0,0.05,9,0)" xlink:href="#ad"/><use transform="matrix(0.05,0,0,0.05,14,0)" xlink:href="#ah"/><use transform="matrix(0.05,0,0,0.05,24,0)" xlink:href="#af"/><use transform="matrix(0.05,0,0,0.05,33,0)" xlink:href="#ai"/></g><path d="M100-194c63 0 86 42 84 106H49c0 40 14 67 53 68 26 1 43-12 49-29l28 8c-11 28-37 45-77 45C44 4 14-33 15-96c1-61 26-98 85-98zm52 81c6-60-76-77-97-28-3 7-6 17-6 28h103zm-34-98H82c-13-18-31-30-41-51 32-2 39 20 59 30 19-10 26-32 57-30-9 21-27 33-39 51" id="aj"/><g id="h"><use transform="matrix(0.05,0,0,0.05,0,0)" xlink:href="#ag"/><use transform="matrix(0.05,0,0,0.05,9,0)" xlink:href="#af"/><use transform="matrix(0.05,0,0,0.05,18,0)" xlink:href="#aj"/><use transform="matrix(0.05,0,0,0.05,28,0)" xlink:href="#ad"/><use transform="matrix(0.05,0,0,0.05,33,0)" xlink:href="#aj"/><use transform="matrix(0.05,0,0,0.05,43,0)" xlink:href="#V"/></g><use transform="matrix(0.05,0,0,0.05,0,0)" xlink:href="#ah" id="i"/><path d="M9 0v-24l116-142H16v-24h144v24L44-24h123V0H9" id="ak"/><g id="j"><use transform="matrix(0.05,0,0,0.05,0,0)" xlink:href="#ag"/><use transform="matrix(0.05,0,0,0.05,9,0)" xlink:href="#Y"/><use transform="matrix(0.05,0,0,0.05,19,0)" xlink:href="#Z"/><use transform="matrix(0.05,0,0,0.05,29,0)" xlink:href="#ak"/><use transform="matrix(0.05,0,0,0.05,38,0)" xlink:href="#ac"/><use transform="matrix(0.05,0,0,0.05,48,0)" xlink:href="#ae"/><use transform="matrix(0.05,0,0,0.05,53.95,0)" xlink:href="#ai"/></g><path fill="#3a414a" d="M185-189c-5-48-123-54-124 2 14 75 158 14 163 119 3 78-121 87-175 55-17-10-28-26-33-46l33-7c5 56 141 63 141-1 0-78-155-14-162-118-5-82 145-84 179-34 5 7 8 16 11 25" id="al"/><path fill="#3a414a" d="M179-190L93 31C79 59 56 82 12 73V49c39 6 53-20 64-50L1-190h34L92-34l54-156h33" id="am"/><g id="k"><use transform="matrix(0.06172839506172839,0,0,0.06172839506172839,0,0)" xlink:href="#al"/><use transform="matrix(0.06172839506172839,0,0,0.06172839506172839,14.814814814814813,0)" xlink:href="#C"/><use transform="matrix(0.06172839506172839,0,0,0.06172839506172839,27.160493827160494,0)" xlink:href="#L"/><use transform="matrix(0.06172839506172839,0,0,0.06172839506172839,39.50617283950617,0)" xlink:href="#J"/><use transform="matrix(0.06172839506172839,0,0,0.06172839506172839,50.61728395061728,0)" xlink:href="#I"/><use transform="matrix(0.06172839506172839,0,0,0.06172839506172839,62.962962962962955,0)" xlink:href="#H"/><use transform="matrix(0.06172839506172839,0,0,0.06172839506172839,70.30864197530863,0)" xlink:href="#am"/></g><path d="M140-251c81 0 123 46 123 126C263-46 219 4 140 4 59 4 17-45 17-125s42-126 123-126zm0 227c63 0 89-41 89-101s-29-99-89-99c-61 0-89 39-89 99S79-25 140-24" id="an"/><path d="M85-194c31 0 48 13 60 33l-1-100h32l1 261h-30c-2-10 0-23-3-31C134-8 116 4 85 4 32 4 16-35 15-94c0-66 23-100 70-100zm9 24c-40 0-46 34-46 75 0 40 6 74 45 74 42 0 51-32 51-76 0-42-9-74-50-73" id="ao"/><g id="l"><use transform="matrix(0.05,0,0,0.05,0,0)" xlink:href="#an"/><use transform="matrix(0.05,0,0,0.05,14,0)" xlink:href="#ao"/><use transform="matrix(0.05,0,0,0.05,24,0)" xlink:href="#U"/><use transform="matrix(0.05,0,0,0.05,34,0)" xlink:href="#V"/><use transform="matrix(0.05,0,0,0.05,37.95,0)" xlink:href="#W"/><use transform="matrix(0.05,0,0,0.05,47.95,0)" xlink:href="#X"/><use transform="matrix(0.05,0,0,0.05,56.95,0)" xlink:href="#Y"/><use transform="matrix(0.05,0,0,0.05,66.95,0)" xlink:href="#Z"/><use transform="matrix(0.05,0,0,0.05,76.95,0)" xlink:href="#aa"/></g><path fill="#3a414a" d="M100-194c63 0 86 42 84 106H49c0 40 14 67 53 68 26 1 43-12 49-29l28 8c-11 28-37 45-77 45C44 4 14-33 15-96c1-61 26-98 85-98zm52 81c6-60-76-77-97-28-3 7-6 17-6 28h103zm-34-98H82c-13-18-31-30-41-51 32-2 39 20 59 30 19-10 26-32 57-30-9 21-27 33-39 51" id="ap"/><g id="m"><use transform="matrix(0.06172839506172839,0,0,0.06172839506172839,0,0)" xlink:href="#al"/><use transform="matrix(0.06172839506172839,0,0,0.06172839506172839,14.814814814814813,0)" xlink:href="#z"/><use transform="matrix(0.06172839506172839,0,0,0.06172839506172839,25.925925925925924,0)" xlink:href="#ap"/><use transform="matrix(0.06172839506172839,0,0,0.06172839506172839,38.2716049382716,0)" xlink:href="#B"/><use transform="matrix(0.06172839506172839,0,0,0.06172839506172839,44.44444444444444,0)" xlink:href="#D"/><use transform="matrix(0.06172839506172839,0,0,0.06172839506172839,49.32098765432099,0)" xlink:href="#A"/></g><path fill="#333" d="M15-91v-56l181-69v40L49-119l147 57v40" id="aq"/><path fill="#333" d="M25-224v-37h50v37H25zM25 0v-190h50V0H25" id="ar"/><path fill="#333" d="M135-194c87-1 58 113 63 194h-50c-7-57 23-157-34-157-59 0-34 97-39 157H25l-1-190h47c2 12-1 28 3 38 12-26 28-41 61-42" id="as"/><path fill="#333" d="M190-63c-7 42-38 67-86 67-59 0-84-38-90-98-12-110 154-137 174-36l-49 2c-2-19-15-32-35-32-30 0-35 28-38 64-6 74 65 87 74 30" id="at"/><path fill="#333" d="M25 0v-261h50V0H25" id="au"/><path fill="#333" d="M85 4C-2 5 27-109 22-190h50c7 57-23 150 33 157 60-5 35-97 40-157h50l1 190h-47c-2-12 1-28-3-38-12 25-28 42-61 42" id="av"/><path fill="#333" d="M88-194c31-1 46 15 58 34l-1-101h50l1 261h-48c-2-10 0-23-3-31C134-8 116 4 84 4 32 4 16-41 15-95c0-56 19-97 73-99zm17 164c33 0 40-30 41-66 1-37-9-64-41-64s-38 30-39 65c0 43 13 65 39 65" id="aw"/><path fill="#333" d="M185-48c-13 30-37 53-82 52C43 2 14-33 14-96s30-98 90-98c62 0 83 45 84 108H66c0 31 8 55 39 56 18 0 30-7 34-22zm-45-69c5-46-57-63-70-21-2 6-4 13-4 21h74" id="ax"/><path fill="#333" d="M15-22v-40l146-57-146-57v-40l181 69v56" id="ay"/><g id="n"><use transform="matrix(0.04938271604938272,0,0,0.04938271604938272,0,0)" xlink:href="#aq"/><use transform="matrix(0.04938271604938272,0,0,0.04938271604938272,10.370370370370372,0)" xlink:href="#aq"/><use transform="matrix(0.04938271604938272,0,0,0.04938271604938272,20.740740740740744,0)" xlink:href="#ar"/><use transform="matrix(0.04938271604938272,0,0,0.04938271604938272,25.679012345679016,0)" xlink:href="#as"/><use transform="matrix(0.04938271604938272,0,0,0.04938271604938272,36.49382716049383,0)" xlink:href="#at"/><use transform="matrix(0.04938271604938272,0,0,0.04938271604938272,46.370370370370374,0)" xlink:href="#au"/><use transform="matrix(0.04938271604938272,0,0,0.04938271604938272,51.308641975308646,0)" xlink:href="#av"/><use transform="matrix(0.04938271604938272,0,0,0.04938271604938272,62.12345679012346,0)" xlink:href="#aw"/><use transform="matrix(0.04938271604938272,0,0,0.04938271604938272,72.93827160493828,0)" xlink:href="#ax"/><use transform="matrix(0.04938271604938272,0,0,0.04938271604938272,82.81481481481482,0)" xlink:href="#ay"/><use transform="matrix(0.04938271604938272,0,0,0.04938271604938272,93.18518518518519,0)" xlink:href="#ay"/></g><path d="M84 4C-5 8 30-112 23-190h32v120c0 31 7 50 39 49 72-2 45-101 50-169h31l1 190h-30c-1-10 1-25-2-33-11 22-28 36-60 37" id="az"/><g id="o"><use transform="matrix(0.05,0,0,0.05,0,0)" xlink:href="#ab"/><use transform="matrix(0.05,0,0,0.05,14.950000000000001,0)" xlink:href="#ah"/><use transform="matrix(0.05,0,0,0.05,24.950000000000003,0)" xlink:href="#Z"/><use transform="matrix(0.05,0,0,0.05,34.95,0)" xlink:href="#az"/><use transform="matrix(0.05,0,0,0.05,44.95,0)" xlink:href="#W"/><use transform="matrix(0.05,0,0,0.05,54.95,0)" xlink:href="#V"/><use transform="matrix(0.05,0,0,0.05,58.900000000000006,0)" xlink:href="#Z"/><use transform="matrix(0.05,0,0,0.05,68.9,0)" xlink:href="#aa"/></g><g id="p"><use transform="matrix(0.05,0,0,0.05,0,0)" xlink:href="#Z"/><use transform="matrix(0.05,0,0,0.05,10,0)" xlink:href="#ah"/><use transform="matrix(0.05,0,0,0.05,20,0)" xlink:href="#ag"/><use transform="matrix(0.05,0,0,0.05,29,0)" xlink:href="#ad"/><use transform="matrix(0.05,0,0,0.05,34,0)" xlink:href="#ah"/><use transform="matrix(0.05,0,0,0.05,44,0)" xlink:href="#af"/><use transform="matrix(0.05,0,0,0.05,53,0)" xlink:href="#Y"/><use transform="matrix(0.05,0,0,0.05,63,0)" xlink:href="#Z"/><use transform="matrix(0.05,0,0,0.05,73,0)" xlink:href="#aa"/></g><path d="M179-190L93 31C79 59 56 82 12 73V49c39 6 53-20 64-50L1-190h34L92-34l54-156h33" id="aA"/><g id="q"><use transform="matrix(0.05,0,0,0.05,0,0)" xlink:href="#T"/><use transform="matrix(0.05,0,0,0.05,3.95,0)" xlink:href="#Z"/><use transform="matrix(0.05,0,0,0.05,13.949999999999998,0)" xlink:href="#ad"/><use transform="matrix(0.05,0,0,0.05,18.95,0)" xlink:href="#Y"/><use transform="matrix(0.05,0,0,0.05,28.950000000000003,0)" xlink:href="#Z"/><use transform="matrix(0.05,0,0,0.05,38.95,0)" xlink:href="#ak"/><use transform="matrix(0.05,0,0,0.05,47.95,0)" xlink:href="#T"/><use transform="matrix(0.05,0,0,0.05,51.900000000000006,0)" xlink:href="#ad"/><use transform="matrix(0.05,0,0,0.05,56.900000000000006,0)" xlink:href="#aA"/></g><g id="r"><use transform="matrix(0.05,0,0,0.05,0,0)" xlink:href="#ag"/><use transform="matrix(0.05,0,0,0.05,9,0)" xlink:href="#af"/><use transform="matrix(0.05,0,0,0.05,18,0)" xlink:href="#aj"/><use transform="matrix(0.05,0,0,0.05,28,0)" xlink:href="#ad"/><use transform="matrix(0.05,0,0,0.05,33,0)" xlink:href="#Y"/><use transform="matrix(0.05,0,0,0.05,43,0)" xlink:href="#V"/></g><path d="M209 0H11v-25l151-195H24v-28h176v25L50-27h159V0" id="aB"/><path d="M115-194c55 1 70 41 70 98S169 2 115 4C84 4 66-9 55-30l1 105H24l-1-265h31l2 30c10-21 28-34 59-34zm-8 174c40 0 45-34 45-75s-6-73-45-74c-42 0-51 32-51 76 0 43 10 73 51 73" id="aC"/><path d="M0 4l72-265h28L28 4H0" id="aD"/><g id="s"><use transform="matrix(0.05,0,0,0.05,0,0)" xlink:href="#aB"/><use transform="matrix(0.05,0,0,0.05,10.950000000000001,0)" xlink:href="#ah"/><use transform="matrix(0.05,0,0,0.05,20.950000000000003,0)" xlink:href="#aC"/><use transform="matrix(0.05,0,0,0.05,30.950000000000003,0)" xlink:href="#Z"/><use transform="matrix(0.05,0,0,0.05,40.95,0)" xlink:href="#az"/><use transform="matrix(0.05,0,0,0.05,50.95,0)" xlink:href="#ad"/><use transform="matrix(0.05,0,0,0.05,55.95,0)" xlink:href="#aa"/><use transform="matrix(0.05,0,0,0.05,60.95,0)" xlink:href="#aD"/><use transform="matrix(0.05,0,0,0.05,65.95,0)" xlink:href="#af"/><use transform="matrix(0.05,0,0,0.05,74.95,0)" xlink:href="#aA"/><use transform="matrix(0.05,0,0,0.05,83.95,0)" xlink:href="#aC"/><use transform="matrix(0.05,0,0,0.05,93.95,0)" xlink:href="#Z"/><use transform="matrix(0.05,0,0,0.05,103.95,0)" xlink:href="#az"/><use transform="matrix(0.05,0,0,0.05,113.95,0)" xlink:href="#ad"/><use transform="matrix(0.05,0,0,0.05,118.95,0)" xlink:href="#aa"/></g><path fill="#333" d="M144 0l-44-69L55 0H2l70-98-66-92h53l41 62 40-62h54l-67 91 71 99h-54" id="aE"/><path fill="#333" d="M115-3C79 11 28 4 28-45v-112H4v-33h27l15-45h31v45h36v33H77v99c-1 23 16 31 38 25v30" id="aF"/><g id="t"><use transform="matrix(0.04938271604938272,0,0,0.04938271604938272,0,0)" xlink:href="#aq"/><use transform="matrix(0.04938271604938272,0,0,0.04938271604938272,10.370370370370372,0)" xlink:href="#aq"/><use transform="matrix(0.04938271604938272,0,0,0.04938271604938272,20.740740740740744,0)" xlink:href="#ax"/><use transform="matrix(0.04938271604938272,0,0,0.04938271604938272,30.617283950617285,0)" xlink:href="#aE"/><use transform="matrix(0.04938271604938272,0,0,0.04938271604938272,40.49382716049384,0)" xlink:href="#aF"/><use transform="matrix(0.04938271604938272,0,0,0.04938271604938272,46.37037037037038,0)" xlink:href="#ax"/><use transform="matrix(0.04938271604938272,0,0,0.04938271604938272,56.24691358024693,0)" xlink:href="#as"/><use transform="matrix(0.04938271604938272,0,0,0.04938271604938272,67.06172839506173,0)" xlink:href="#aw"/><use transform="matrix(0.04938271604938272,0,0,0.04938271604938272,77.87654320987654,0)" xlink:href="#ay"/><use transform="matrix(0.04938271604938272,0,0,0.04938271604938272,88.24691358024691,0)" xlink:href="#ay"/></g><path d="M190 0L58-211 59 0H30v-248h39L202-35l-2-213h31V0h-41" id="aG"/><g id="u"><use transform="matrix(0.05,0,0,0.05,0,0)" xlink:href="#aG"/><use transform="matrix(0.05,0,0,0.05,12.950000000000001,0)" xlink:href="#ah"/><use transform="matrix(0.05,0,0,0.05,22.950000000000003,0)" xlink:href="#ag"/><use transform="matrix(0.05,0,0,0.05,31.950000000000003,0)" xlink:href="#ad"/><use transform="matrix(0.05,0,0,0.05,36.95,0)" xlink:href="#ah"/><use transform="matrix(0.05,0,0,0.05,46.95,0)" xlink:href="#af"/><use transform="matrix(0.05,0,0,0.05,55.95,0)" xlink:href="#Y"/><use transform="matrix(0.05,0,0,0.05,65.95,0)" xlink:href="#Z"/><use transform="matrix(0.05,0,0,0.05,75.95,0)" xlink:href="#aa"/></g><g id="v"><use transform="matrix(0.05,0,0,0.05,0,0)" xlink:href="#ag"/><use transform="matrix(0.05,0,0,0.05,9,0)" xlink:href="#af"/><use transform="matrix(0.05,0,0,0.05,18,0)" xlink:href="#aj"/><use transform="matrix(0.05,0,0,0.05,28,0)" xlink:href="#ad"/><use transform="matrix(0.05,0,0,0.05,33,0)" xlink:href="#V"/><use transform="matrix(0.05,0,0,0.05,36.95,0)" xlink:href="#ah"/></g></defs></g></svg>